<?xml version="1.0" encoding="UTF-8" standalone="no"?>
<svg
   height="16"
   viewBox="0 0 16 16"
   width="16"
   version="1.1"
   id="svg1"
   sodipodi:docname="hourglass_tiny.svg"
   inkscape:version="1.3 (1:1.3+202307231459+0e150ed6c4)"
   xmlns:inkscape="http://www.inkscape.org/namespaces/inkscape"
   xmlns:sodipodi="http://sodipodi.sourceforge.net/DTD/sodipodi-0.dtd"
   xmlns="http://www.w3.org/2000/svg"
   xmlns:svg="http://www.w3.org/2000/svg">
  <defs
     id="defs1" />
  <sodipodi:namedview
     id="namedview1"
     pagecolor="#ffffff"
     bordercolor="#111111"
     borderopacity="1"
     inkscape:showpageshadow="0"
     inkscape:pageopacity="0"
     inkscape:pagecheckerboard="1"
     inkscape:deskcolor="#d1d1d1"
     inkscape:zoom="35.8125"
     inkscape:cx="7.9860384"
     inkscape:cy="7.9720768"
     inkscape:window-width="1920"
     inkscape:window-height="1043"
     inkscape:window-x="0"
     inkscape:window-y="0"
     inkscape:window-maximized="1"
     inkscape:current-layer="svg1" />
  <path
     d="m 3.9999987,2.4000103 a 0.80008048,0.80007217 0 0 0 -0.3093759,0.062499 0.80008048,0.80007217 0 0 0 -0.00156,0 c -0.00182,7.637e-4 -0.00288,0.00235 -0.00469,0.00312 A 0.80008048,0.80007217 0 0 0 3.4359326,2.6328119 c -0.00103,0.00102 -0.0021,0.0021 -0.00312,0.00312 A 0.80008048,0.80007217 0 0 0 3.268748,2.8796817 c -0.0024,0.00547 -0.00554,0.01008 -0.00781,0.015632 A 0.80008048,0.80007217 0 0 0 3.2,3.2000073 C 3.2,4.3999954 3.9735765,5.2997467 4.6984009,6.1281385 5.3070516,6.8237317 5.831284,7.4421253 6.1984041,7.9999605 5.8312919,8.5578749 5.3071236,9.1777886 4.6984033,9.8733822 3.9735387,10.701774 3.2000024,11.599925 3.2000024,12.799914 a 0.80008048,0.80007217 0 0 0 0.062501,0.310933 v 0.0016 c 7.434e-4,0.0018 0.00237,0.0029 0.00312,0.0048 a 0.80008048,0.80007217 0 0 0 0.167184,0.245309 c 8.16e-4,8e-4 0.0023,0.0038 0.00312,0.0046 a 0.80008048,0.80007217 0 0 0 0.2406241,0.162494 c 0.00746,0.0034 0.014304,0.0064 0.021875,0.0094 a 0.80008048,0.80007217 0 0 0 0.3015601,0.06095 h 8.0000054 a 0.80008048,0.80007217 0 0 0 0.3,-0.05938 c 0.0082,-0.0034 0.01552,-0.0074 0.02344,-0.01088 a 0.80008048,0.80007217 0 0 0 0.234376,-0.159376 c 0.0038,-0.0037 0.0072,-0.0072 0.01088,-0.01088 a 0.80008048,0.80007217 0 0 0 0.160936,-0.235933 c 0.0034,-0.0075 0.0064,-0.01424 0.0094,-0.02187 a 0.80008048,0.80007217 0 0 0 0.06098,-0.301659 c 0,-1.199989 -0.773576,-2.09814 -1.498402,-2.9265318 C 10.692895,9.177779 10.168711,8.5578645 9.801591,7.9999501 10.168711,7.4421157 10.692951,6.8237213 11.30159,6.1281286 12.026456,5.2997367 12.799992,4.3999855 12.799992,3.1999973 A 0.80008048,0.80007217 0 0 0 12.737492,2.8875044 0.80008048,0.80007217 0 0 0 12.56562,2.6343788 0.80008048,0.80007217 0 0 0 12.31718,2.4656285 0.80008048,0.80007217 0 0 0 12.30778,2.4609385 0.80008048,0.80007217 0 0 0 11.999964,2.4000015 H 3.9999845 Z m 1.2703209,1.5999843 h 5.4593624 c -0.19024,0.3526365 -0.2444,0.6313538 -0.631247,1.0734295 C 9.4232984,5.8450166 8.5797937,6.6512485 8.084353,7.6421189 A 0.80008048,0.80007217 0 0 0 7.9999771,7.9999317 0.80008048,0.80007217 0 0 0 7.9156011,7.6421189 C 7.4201932,6.6512485 6.5766401,5.8450166 5.9015199,5.0734241 5.5146717,4.6313484 5.4605118,4.3526311 5.2702716,3.9999946 Z"
     fill="#e0e0e0"
     id="path1"
     style="stroke-width:0.799997" />
</svg>
