<?xml version="1.0" encoding="UTF-8" standalone="no"?>
<svg
   height="16"
   viewBox="0 0 16 16"
   width="16"
   version="1.1"
   id="svg2"
   sodipodi:docname="link_red.svg"
   inkscape:version="1.3 (1:1.3+202307231459+0e150ed6c4)"
   xmlns:inkscape="http://www.inkscape.org/namespaces/inkscape"
   xmlns:sodipodi="http://sodipodi.sourceforge.net/DTD/sodipodi-0.dtd"
   xmlns="http://www.w3.org/2000/svg"
   xmlns:svg="http://www.w3.org/2000/svg">
  <defs
     id="defs2" />
  <sodipodi:namedview
     id="namedview2"
     pagecolor="#ffffff"
     bordercolor="#111111"
     borderopacity="1"
     inkscape:showpageshadow="0"
     inkscape:pageopacity="0"
     inkscape:pagecheckerboard="1"
     inkscape:deskcolor="#d1d1d1"
     inkscape:zoom="48.790368"
     inkscape:cx="5.831069"
     inkscape:cy="10.51437"
     inkscape:window-width="1920"
     inkscape:window-height="1016"
     inkscape:window-x="1920"
     inkscape:window-y="27"
     inkscape:window-maximized="1"
     inkscape:current-layer="svg2" />
  <g
     id="g1"
     transform="translate(2.2734564,-2.1368663)">
    <path
       id="path1"
       style="fill:#f66151;fill-opacity:1;stroke-width:1.95452;-inkscape-stroke:none"
       d="m 10.974651,4.8881097 a 3.9335382,3.9335382 0 0 0 -5.5629414,-2e-7 3.9335382,3.9335382 0 0 0 -1.1020922,3.3394223 C 4.3495131,8.1708367 4.3933467,8.1161816 4.4435809,8.0659473 L 6.7955397,5.7139885 C 7.3715913,5.1379369 8.4062868,5.2448474 9.1157338,5.9542944 l 0.8120677,0.8120678 c 0.7094475,0.709447 0.8163575,1.7441424 0.2403055,2.320194 L 7.8161487,11.438515 c -0.044541,0.04454 -0.092584,0.08374 -0.1422501,0.120153 a 3.9335382,3.9335382 0 0 0 3.3007524,-1.107617 3.9335382,3.9335382 0 0 0 0,-5.5629413 z" />
    <rect
       style="fill:#f66151;fill-opacity:1;stroke-width:1.59;-inkscape-stroke:none"
       id="rect1"
       width="2.1472273"
       height="7.8541656"
       x="10.143644"
       y="-11.3643"
       transform="rotate(45)" />
  </g>
  <g
     id="g2"
     transform="translate(-2.1051511,2.1810807)">
    <rect
       style="fill:#f66151;fill-opacity:1;stroke-width:1.59;-inkscape-stroke:none"
       id="rect1-6"
       width="2.1472273"
       height="7.8541656"
       x="10.186534"
       y="3.5978758"
       transform="rotate(45)" />
    <rect
       style="fill:#f66151;fill-opacity:1;stroke-width:1.14234;-inkscape-stroke:none"
       id="rect2-5"
       width="4.227036"
       height="5.5534778"
       x="9.1037407"
       y="-1.1619017"
       rx="1.605042"
       ry="1.3032502"
       transform="rotate(45)" />
  </g>
</svg>
