<?xml version="1.0" encoding="UTF-8" standalone="no"?>
<svg
   height="16"
   viewBox="0 0 16 16"
   width="16"
   version="1.1"
   id="svg2"
   sodipodi:docname="link.svg"
   inkscape:version="1.3 (1:1.3+202307231459+0e150ed6c4)"
   xmlns:inkscape="http://www.inkscape.org/namespaces/inkscape"
   xmlns:sodipodi="http://sodipodi.sourceforge.net/DTD/sodipodi-0.dtd"
   xmlns="http://www.w3.org/2000/svg"
   xmlns:svg="http://www.w3.org/2000/svg">
  <defs
     id="defs2" />
  <sodipodi:namedview
     id="namedview2"
     pagecolor="#ffffff"
     bordercolor="#111111"
     borderopacity="1"
     inkscape:showpageshadow="0"
     inkscape:pageopacity="0"
     inkscape:pagecheckerboard="1"
     inkscape:deskcolor="#d1d1d1"
     inkscape:zoom="48.790368"
     inkscape:cx="6.7328863"
     inkscape:cy="9.6945364"
     inkscape:window-width="1920"
     inkscape:window-height="1016"
     inkscape:window-x="1920"
     inkscape:window-y="27"
     inkscape:window-maximized="1"
     inkscape:current-layer="svg2" />
  <g
     id="g2"
     transform="rotate(45,13.384755,15.966746)">
    <path
       id="path1"
       style="fill:#e0e0e0;stroke-width:1.95452;-inkscape-stroke:none"
       d="M 3.9433594,8.1328125 A 3.9335382,3.9335382 0 0 0 0.00976563,12.066406 3.9335382,3.9335382 0 0 0 1.5917969,15.207031 c -0.011879,-0.0683 -0.019531,-0.137942 -0.019531,-0.208984 v -3.326172 c 0,-0.81466 0.8072373,-1.470703 1.8105469,-1.470703 H 4.53125 c 1.0033096,0 1.8105469,0.656043 1.8105469,1.470703 v 3.326172 c 0,0.06299 -0.00625,0.124684 -0.015625,0.185547 A 3.9335382,3.9335382 0 0 0 7.8769531,12.066406 3.9335382,3.9335382 0 0 0 3.9433594,8.1328125 Z" />
    <rect
       style="fill:#e0e0e0;stroke-width:1.59;-inkscape-stroke:none"
       id="rect1"
       width="2.1472273"
       height="7.8541656"
       x="2.8703382"
       y="1.0723473" />
  </g>
  <g
     id="g3"
     transform="rotate(-135,8.983812,11.376656)">
    <rect
       style="fill:#e0e0e0;stroke-width:1.59;-inkscape-stroke:none"
       id="rect1-6"
       width="2.1472273"
       height="7.8541656"
       x="-13.140613"
       y="-7.8541656"
       transform="scale(-1)" />
    <rect
       style="fill:#e0e0e0;fill-opacity:1;stroke-width:1.14234;-inkscape-stroke:none"
       id="rect2-5"
       width="4.227036"
       height="5.5534778"
       x="-14.223406"
       y="-12.613943"
       rx="1.605042"
       ry="1.3032502"
       transform="scale(-1)" />
  </g>
</svg>
