<?xml version="1.0" encoding="UTF-8" standalone="no"?>
<svg
   height="16"
   viewBox="0 0 16 16"
   width="16"
   version="1.1"
   id="svg1"
   sodipodi:docname="question_mark.svg"
   inkscape:version="1.3 (1:1.3+202307231459+0e150ed6c4)"
   xmlns:inkscape="http://www.inkscape.org/namespaces/inkscape"
   xmlns:sodipodi="http://sodipodi.sourceforge.net/DTD/sodipodi-0.dtd"
   xmlns="http://www.w3.org/2000/svg"
   xmlns:svg="http://www.w3.org/2000/svg">
  <defs
     id="defs1" />
  <sodipodi:namedview
     id="namedview1"
     pagecolor="#ffffff"
     bordercolor="#111111"
     borderopacity="1"
     inkscape:showpageshadow="0"
     inkscape:pageopacity="0"
     inkscape:pagecheckerboard="1"
     inkscape:deskcolor="#d1d1d1"
     inkscape:zoom="35.8125"
     inkscape:cx="3.895288"
     inkscape:cy="9.0191972"
     inkscape:window-width="1452"
     inkscape:window-height="752"
     inkscape:window-x="1970"
     inkscape:window-y="114"
     inkscape:window-maximized="0"
     inkscape:current-layer="svg1" />
  <path
     d="m 3.8385482,4.7447966 c 0,0.5520825 0.239583,1.1666648 0.9479152,1.1666648 0.5208325,0 0.9374985,-0.3958327 0.9374985,-0.9062485 0,-0.1041665 -0.010417,-0.1874997 -0.010417,-0.2499996 0,-1.1354149 0.9270818,-1.8229138 2.1354133,-1.8229138 1.3437478,0 2.4374964,0.7187488 2.4374964,1.906247 0,0.4479159 -0.135417,0.7604154 -0.3437497,1.1041649 -0.7395822,1.1979148 -3.1354117,2.0416634 -3.1354117,4.4687426 0,0.572916 0.1249998,1.489581 0.9999984,1.489581 0.5208325,0 0.9374985,-0.406249 0.9374985,-0.916665 0,-0.239583 -0.0625,-0.427083 -0.0625,-0.562499 0,-0.7708321 0.4270826,-1.1041649 1.0208317,-1.6145808 C 10.661454,7.9843748 12.161452,6.84896 12.161452,4.8385465 c 0,-0.3854161 -0.0625,-0.7604155 -0.197917,-1.1354149 C 11.411453,2.1198008 9.8281221,1.0573024 7.8281253,1.0573024 c -2.1354133,0 -3.9895771,1.4583311 -3.9895771,3.6874942 z m 4.1562435,7.6770714 c -0.6979156,0 -1.2604147,0.562499 -1.2604147,1.260415 0,0.697915 0.5624991,1.260414 1.2604147,1.260414 0.6979155,0 1.2604147,-0.562499 1.2604147,-1.260414 0,-0.697916 -0.5624992,-1.260415 -1.2604147,-1.260415 z"
     id="text1"
     style="font-weight:bold;font-size:21.3333px;line-height:1;font-family:Manjari;-inkscape-font-specification:'Manjari Bold';text-align:center;text-anchor:middle;fill:#ffffff;stroke-width:1.16147"
     aria-label="?" />
</svg>
