<?xml version="1.0" encoding="UTF-8" standalone="no"?>
<svg
   height="32"
   viewBox="0 0 14.999999 14.999999"
   width="32"
   version="1.1"
   id="svg29"
   sodipodi:docname="cylinder_list.svg"
   xml:space="preserve"
   inkscape:version="1.2.2 (732a01da63, 2022-12-09, custom)"
   xmlns:inkscape="http://www.inkscape.org/namespaces/inkscape"
   xmlns:sodipodi="http://sodipodi.sourceforge.net/DTD/sodipodi-0.dtd"
   xmlns="http://www.w3.org/2000/svg"
   xmlns:svg="http://www.w3.org/2000/svg"><defs
     id="defs33" /><sodipodi:namedview
     id="namedview31"
     pagecolor="#ffffff"
     bordercolor="#999999"
     borderopacity="1"
     inkscape:showpageshadow="0"
     inkscape:pageopacity="0"
     inkscape:pagecheckerboard="0"
     inkscape:deskcolor="#d1d1d1"
     showgrid="false"
     inkscape:zoom="34.3125"
     inkscape:cx="8.3497268"
     inkscape:cy="8.1748634"
     inkscape:window-width="1920"
     inkscape:window-height="1016"
     inkscape:window-x="1920"
     inkscape:window-y="27"
     inkscape:window-maximized="1"
     inkscape:current-layer="svg29" /><path
     id="path23"
     style="fill:#ffffff;fill-opacity:1"
     d="M 0.88989252 3.6877439 L 0.88989252 11.332397 A 6.5864792 2.820821 0 0 0 0.88806146 11.345214 A 6.5864792 2.820821 0 0 0 0.88989252 11.358031 L 0.88989252 11.387328 L 0.89355463 11.387328 A 6.5864792 2.820821 0 0 0 6.9671626 14.15039 C 6.9016856 14.074267 6.8609615 13.977152 6.8609615 13.868407 L 6.8609615 7.3736567 C 6.8609615 7.1325664 7.0538311 6.9378657 7.2949214 6.9378657 L 13.789672 6.9378657 C 13.893749 6.9378657 13.987773 6.9762354 14.062499 7.0367427 L 14.062499 3.6877439 L 0.88989252 3.6877439 z " /><ellipse
     cx="7.4772978"
     cy="3.7229121"
     fill="#c0bfbc"
     rx="6.5864792"
     ry="2.820821"
     id="ellipse25" /><path
     d="M 7.4999995,7.4999995 V 8.5949368 H 8.5949368 V 7.4999995 Z m 2.1898767,0 V 8.5949368 H 14.069631 V 7.4999995 Z M 7.4999995,10.237344 v 1.09494 h 1.0949373 v -1.09494 z m 2.1898767,0 v 1.09494 h 4.3797548 v -1.09494 z m -2.1898767,2.737348 v 1.094939 h 1.0949373 v -1.094939 z m 2.1898767,0 v 1.094939 h 4.3797548 v -1.094939 z"
     fill="#e0e0e0"
     id="path179"
     style="fill:#ffffff;fill-opacity:1;stroke-width:0.54747" /></svg>
