<?xml version="1.0" encoding="UTF-8" standalone="no"?>
<svg
   height="32"
   viewBox="0 0 14.999999 14.999999"
   width="32"
   version="1.1"
   id="svg722"
   sodipodi:docname="cylinder_to_cylinder.svg"
   inkscape:version="1.2.2 (732a01da63, 2022-12-09, custom)"
   xml:space="preserve"
   xmlns:inkscape="http://www.inkscape.org/namespaces/inkscape"
   xmlns:sodipodi="http://sodipodi.sourceforge.net/DTD/sodipodi-0.dtd"
   xmlns="http://www.w3.org/2000/svg"
   xmlns:svg="http://www.w3.org/2000/svg"><defs
     id="defs726" /><sodipodi:namedview
     id="namedview724"
     pagecolor="#ffffff"
     bordercolor="#999999"
     borderopacity="1"
     inkscape:showpageshadow="0"
     inkscape:pageopacity="0"
     inkscape:pagecheckerboard="true"
     inkscape:deskcolor="#d1d1d1"
     showgrid="false"
     inkscape:zoom="16"
     inkscape:cx="11.28125"
     inkscape:cy="19.4375"
     inkscape:window-width="1920"
     inkscape:window-height="1043"
     inkscape:window-x="0"
     inkscape:window-y="0"
     inkscape:window-maximized="1"
     inkscape:current-layer="svg722" /><path
     id="path1821"
     d="M 0.47058102,2.4380492 V 7.8799436 H 4.729614 V 6.877441 h 0.00366 A 5.1144902,2.1758777 0 0 1 9.8419185,4.7286984 V 2.4380492 Z"
     style="stroke-width:0.709181;fill:#e0e0e0;fill-opacity:1" /><ellipse
     cx="5.1571779"
     cy="2.4625764"
     fill="#a0a0a0"
     rx="4.6865711"
     ry="1.9938264"
     id="ellipse1818"
     style="stroke-width:0.709181" /><path
     id="ellipse1815"
     d="M 5.1553341,5.8557125 A 4.6865712,1.9938264 0 0 0 0.46874997,7.8497311 4.6865712,1.9938264 0 0 0 4.729614,9.8355096 V 6.877441 h 0.00366 A 5.1144902,2.1758777 0 0 1 5.3631588,5.8575435 4.6865712,1.9938264 0 0 0 5.1553341,5.8557125 Z"
     style="stroke-width:0.709181;fill:#e0e0e0;fill-opacity:1" /><g
     id="g2383"><path
       d="M 5.1577903,7.1253598 H 14.52977 V 12.567438 H 5.1577903 Z"
       fill="#e0e0e0"
       id="path716-7"
       style="stroke-width:0.11718749;stroke:none;stroke-opacity:1;stroke-dasharray:none" /><ellipse
       cx="9.8446779"
       cy="7.1500759"
       fill="#a0a0a0"
       rx="4.6865711"
       ry="1.9938264"
       id="ellipse718-5"
       style="stroke-width:0.7092187;stroke:none;stroke-opacity:1;stroke-dasharray:none" /><ellipse
       cx="9.8428211"
       cy="12.537423"
       fill="#e0e0e0"
       rx="4.6865711"
       ry="1.9938264"
       id="ellipse720-3"
       style="stroke-width:0.709181" /></g><rect
     style="fill:none;fill-opacity:0.784314;stroke:none;stroke-width:0.709219;stroke-dasharray:none;stroke-opacity:1"
     id="rect937"
     width="1.5967815"
     height="0.26908454"
     x="15.003679"
     y="14.731063"
     ry="0.13454227" /></svg>
