<?xml version="1.0" encoding="UTF-8" standalone="no"?>
<svg
   height="32"
   viewBox="0 0 14.999999 14.999999"
   width="32"
   version="1.1"
   id="svg1043"
   sodipodi:docname="list_cylinder.svg"
   xml:space="preserve"
   inkscape:version="1.2.2 (732a01da63, 2022-12-09, custom)"
   inkscape:export-filename="../a2517749/cylinder.png"
   inkscape:export-xdpi="96"
   inkscape:export-ydpi="96"
   xmlns:inkscape="http://www.inkscape.org/namespaces/inkscape"
   xmlns:sodipodi="http://sodipodi.sourceforge.net/DTD/sodipodi-0.dtd"
   xmlns="http://www.w3.org/2000/svg"
   xmlns:svg="http://www.w3.org/2000/svg"><defs
     id="defs1047" /><sodipodi:namedview
     id="namedview1045"
     pagecolor="#ffffff"
     bordercolor="#999999"
     borderopacity="1"
     inkscape:showpageshadow="0"
     inkscape:pageopacity="0"
     inkscape:pagecheckerboard="true"
     inkscape:deskcolor="#d1d1d1"
     showgrid="false"
     inkscape:zoom="32"
     inkscape:cx="19.1875"
     inkscape:cy="18.359375"
     inkscape:window-width="1920"
     inkscape:window-height="1016"
     inkscape:window-x="1920"
     inkscape:window-y="27"
     inkscape:window-maximized="1"
     inkscape:current-layer="svg1043" /><path
     id="path1716"
     style="fill:#e0e0e0;fill-opacity:1;stroke-width:1.09374"
     d="M 0.93749994 0.93749994 L 0.93749994 3.1246946 L 3.1246946 3.1246946 L 3.1246946 0.93749994 L 0.93749994 0.93749994 z M 5.3128048 0.93749994 L 5.3128048 3.1246946 L 14.062499 3.1246946 L 14.062499 0.93749994 L 5.3128048 0.93749994 z M 0.93749994 6.4059444 L 0.93749994 8.5940546 L 3.1246946 8.5940546 L 3.1246946 6.4059444 L 0.93749994 6.4059444 z M 5.3128048 6.4059444 L 5.3128048 8.5940546 L 7.2427363 8.5940546 A 3.5564989 1.5130552 0 0 1 10.782165 7.2244258 A 3.5564989 1.5130552 0 0 1 14.062499 8.1527705 L 14.062499 6.4059444 L 5.3128048 6.4059444 z M 0.93749994 11.875304 L 0.93749994 14.062499 L 3.1246946 14.062499 L 3.1246946 11.875304 L 0.93749994 11.875304 z M 5.3128048 11.875304 L 5.3128048 14.062499 L 8.7387079 14.062499 A 3.556499 1.5130552 0 0 1 7.2262568 12.84851 L 7.2253413 12.84851 L 7.2253413 12.834777 A 3.556499 1.5130552 0 0 1 7.2244258 12.825622 A 3.556499 1.5130552 0 0 1 7.2253413 12.815551 L 7.2253413 11.875304 L 5.3128048 11.875304 z M 14.062499 13.406066 A 3.556499 1.5130552 0 0 1 12.822875 14.062499 L 14.062499 14.062499 L 14.062499 13.406066 z " /><g
     id="g1867"
     transform="matrix(1.0841002,0,0,1.0841002,-8.1961756,0.65783067)" /><g
     id="g1727"
     clip-path="none"><g
       id="g1830"><path
         d="M 7.5010779,8.8783766 H 14.061464 V 12.687831 H 7.5010779 Z"
         fill="#e0e0e0"
         id="path1811"
         style="stroke-width:0.496426" /><ellipse
         cx="10.781899"
         cy="8.8956776"
         fill="#a0a0a0"
         rx="3.2805998"
         ry="1.3956784"
         id="ellipse1039"
         style="stroke-width:0.496426" /><path
         id="path1805"
         style="fill:#e0e0e0;stroke-width:0.496426"
         d="m 14.061199,12.666821 a 3.2805999,1.3956784 0 0 1 -3.2806,1.395678 3.2805999,1.3956784 0 0 1 -3.2805995,-1.395678 3.2805999,1.3956784 0 0 1 3.2805995,-1.395679 3.2805999,1.3956784 0 0 1 3.2806,1.395679 z" /></g></g></svg>
